<svg xmlns="http://www.w3.org/2000/svg" fill="none" viewBox="0 0 128 128">
<path d="M30.272 87.473C20.984 87.473 13.975 85.968 9.245 82.958C4.515 79.9193 2.15 75.261 2.15 68.983V60.985H21.758V66.747C21.758 69.2123 22.317 71.1043 23.435 72.423C24.5817 73.7417 26.8463 74.401 30.229 74.401C33.583 74.401 35.862 73.8133 37.066 72.638C38.27 71.434 38.872 69.6423 38.872 67.263V28.95H58.437V70.101C58.437 75.7483 56.0863 80.0627 51.385 83.044C46.7123 85.9967 39.6747 87.473 30.272 87.473ZM65.8364 87V28.95H102.3C110.585 28.95 115.673 30.5123 117.565 33.637C119.486 36.733 120.446 39.9007 120.446 43.14C120.446 46.3507 119.715 49.289 118.253 51.955C116.791 54.621 114.14 56.0113 110.298 56.126C114.111 56.3267 117.006 57.76 118.984 60.426C120.962 63.0633 121.951 66.3457 121.951 70.273C121.951 74.8597 121.034 78.8013 119.199 82.098C117.393 85.366 112.219 87 103.676 87H65.8364ZM85.4874 73.756H98.6884C100.408 73.756 101.44 73.3547 101.784 72.552C102.157 71.7493 102.343 70.3017 102.343 68.209C102.343 66.1163 102.157 64.6113 101.784 63.694C101.44 62.748 100.394 62.275 98.6454 62.275H85.4874V73.756ZM85.4874 50.536H97.3554C98.8174 50.536 99.7347 50.149 100.107 49.375C100.48 48.601 100.666 47.4973 100.666 46.064C100.666 44.6593 100.466 43.656 100.064 43.054C99.6917 42.4233 98.803 42.108 97.3984 42.108H85.4874V50.536Z" fill="#E12C2C"/>
    <style>
        path { fill: #fff; }
        @media (prefers-color-scheme: dark) {
            path { fill: #FFF; }
        }
    </style>
</svg>
